# xmcd
#
# Track frame offsets:
#	150
#	18532
#	39279
#	52399
#	71105
#	89745
#	111701
#	130087
#	147421
#	160865
#	171961
#	185910
#
# Disc length: 2608 seconds
#
# Revision: 1
# Processed by: cddbd v1.5.2PL0 Copyright (c) Steve Scherf et al.
# Submitted via: audiograbber 1.83.01
#
DISCID=bf0a2e0c
DTITLE=Kasey Chambers - The Captain
DYEAR=1900
DGENRE=
TTITLE0=Cry Like a Baby
TTITLE1=The Captain
TTITLE2=The Flower
TTITLE3=You Got The Car
TTITLE4=These Pines
TTITLE5=Don't Talk Back
TTITLE6=Southern Kind of Life
TTITLE7=Mr Baylis
TTITLE8=The Hard Way
TTITLE9=Hard Last Bible
TTITLE10=Don't Go
TTITLE11=We're All Gonna Die Some Day
EXTD=
EXTT0=
EXTT1=
EXTT2=
EXTT3=
EXTT4=
EXTT5=
EXTT6=
EXTT7=
EXTT8=
EXTT9=
EXTT10=
EXTT11=
PLAYORDER=
